<svg width="100" height="100" viewBox="0 0 100 100" fill="none" xmlns="http://www.w3.org/2000/svg">
<path d="M49.9009 100C77.2417 100 99.4058 77.6142 99.4058 50C99.4058 22.3858 77.2417 0 49.9009 0C22.5601 0 0.395935 22.3858 0.395935 50C0.395935 77.6142 22.5601 100 49.9009 100Z" fill="#620DF6" fill-opacity="0.15"/>
<path d="M35.9404 23.8868C42.1629 20.5497 49.383 19.6398 56.2267 21.3301C63.0704 23.0205 69.0598 27.1933 73.0552 33.0542C77.0506 38.9151 78.773 46.0552 77.8946 53.1155C77.0163 60.1757 73.5985 66.6634 68.2918 71.3439C62.9849 76.0243 56.1596 78.5707 49.1145 78.4985C42.0696 78.4263 35.2967 75.7406 30.085 70.9524C24.8733 66.1642 21.5865 59.6078 20.8502 52.531C20.1138 45.4541 21.9794 38.3509 26.0917 32.573" stroke="#9238FF" stroke-width="3" stroke-linecap="round" stroke-linejoin="round"/>
<path d="M34.5322 24.1659L36.4574 19.9624" stroke="#9238FF" stroke-width="2" stroke-linecap="round" stroke-linejoin="round"/>
<path d="M34.5307 23.874L38.6025 25.5302" stroke="#9238FF" stroke-width="2" stroke-linecap="round" stroke-linejoin="round"/>
<path d="M49.4057 72.1269C61.7785 72.1269 71.8086 61.9964 71.8086 49.5C71.8086 37.0035 61.7785 26.873 49.4057 26.873C37.033 26.873 27.0029 37.0035 27.0029 49.5C27.0029 61.9964 37.033 72.1269 49.4057 72.1269Z" stroke="#9238FF" stroke-width="3"/>
<path d="M49.4059 30.4521H49.4059C48.7115 30.4521 48.1486 31.0207 48.1486 31.722V33.4151C48.1486 34.1164 48.7115 34.6849 49.4059 34.6849H49.4059C50.1002 34.6849 50.6631 34.1164 50.6631 33.4151V31.722C50.6631 31.0207 50.1002 30.4521 49.4059 30.4521Z" fill="#9238FF"/>
<path d="M49.4064 64.3145H49.4064C48.712 64.3145 48.1491 64.883 48.1491 65.5843V67.2774C48.1491 67.9787 48.712 68.5472 49.4064 68.5472H49.4064C50.1007 68.5472 50.6636 67.9787 50.6636 67.2774V65.5843C50.6636 64.883 50.1007 64.3145 49.4064 64.3145Z" fill="#9238FF"/>
<path d="M68.2646 49.4998V49.4998C68.2646 48.7985 67.7018 48.23 67.0074 48.23H65.331C64.6367 48.23 64.0738 48.7985 64.0738 49.4998V49.4998C64.0738 50.2011 64.6367 50.7696 65.331 50.7696H67.0074C67.7018 50.7696 68.2646 50.2011 68.2646 49.4998Z" fill="#9238FF"/>
<path d="M34.7378 49.4998V49.4998C34.7378 48.7985 34.1749 48.23 33.4805 48.23H31.8042C31.1098 48.23 30.5469 48.7985 30.5469 49.4998V49.4998C30.5469 50.2011 31.1098 50.7697 31.8042 50.7697H33.4805C34.1749 50.7697 34.7378 50.2011 34.7378 49.4998Z" fill="#9238FF"/>
<path d="M42.8721 49.6328L47.5063 54.1822L57.1284 44.7361" stroke="#9238FF" stroke-width="3" stroke-linecap="round" stroke-linejoin="round"/>
</svg>
